<svg width="10" height="8" viewBox="0 0 10 8" fill="none" xmlns="http://www.w3.org/2000/svg">
<path d="M5.75406 1.53576L8.8334 3.99923L8.39097 4.35317L8.39292 4.35474L5.75601 6.46427C5.70965 6.50136 5.62043 6.5105 5.55294 6.49169L8.17772 4.39034L8.66545 3.99987L8.17758 3.60958L5.55101 1.50832C5.6185 1.48953 5.7077 1.49867 5.75406 1.53576ZM2.00406 6.4627L1.98559 6.47748C1.9365 6.50328 1.86153 6.50802 1.80294 6.49169L4.42772 4.39034L4.91545 3.99987L4.42758 3.60958L1.80101 1.50832C1.8685 1.48953 1.9577 1.49867 2.00406 1.53576L5.0834 3.99923L2.00406 6.4627Z" fill="black" stroke="#87CEFA"/>
</svg>
