<svg width="10" height="10" viewBox="0 0 10 10" fill="none" xmlns="http://www.w3.org/2000/svg">
<path d="M8.83785 5.08785L8.4843 5.44141L8.48625 5.44336L5.71481 8.21481C5.66593 8.26368 5.58603 8.26368 5.53715 8.21481C5.48827 8.16593 5.48827 8.08602 5.53715 8.03715L5.53728 8.03702L8.21892 5.35342L8.57221 4.99987L8.21879 4.64645L5.53519 1.96285C5.48632 1.91397 5.48632 1.83407 5.53519 1.78519C5.58407 1.73632 5.66397 1.73632 5.71285 1.78519L8.83785 4.91019C8.88673 4.95907 8.88673 5.03897 8.83785 5.08785ZM1.96285 8.21285L1.94433 8.23138C1.8957 8.26286 1.82968 8.25734 1.78715 8.21481C1.73827 8.16593 1.73827 8.08602 1.78715 8.03715L1.78728 8.03702L4.46892 5.35342L4.82221 4.99987L4.46879 4.64645L1.78519 1.96285C1.73632 1.91397 1.73632 1.83407 1.78519 1.78519C1.83407 1.73632 1.91397 1.73632 1.96285 1.78519L5.08785 4.91019C5.13673 4.95907 5.13673 5.03897 5.08785 5.08785L1.96285 8.21285Z" fill="black" stroke="#87CEFA"/>
</svg>
