<svg width="55" height="59" viewBox="0 0 55 59" fill="none" xmlns="http://www.w3.org/2000/svg">
<g clip-path="url(#clip0_2257_259)">
<path d="M48.1072 36.0924H20.5251L21.1409 39.3615H46.3964C47.8455 39.3615 48.9196 40.8224 48.5984 42.3566L48.0793 44.8366C49.838 45.7635 51.0506 47.7209 51.0506 49.9859C51.0506 53.1735 48.6495 55.7522 45.704 55.7062C42.898 55.6624 40.5902 53.19 40.5145 50.144C40.4731 48.4801 41.087 46.9721 42.0955 45.8995H22.3696C23.346 46.938 23.9526 48.3847 23.9526 49.9859C23.9526 53.2359 21.4565 55.853 18.4323 55.7005C15.747 55.5651 13.563 53.2094 13.4219 50.2946C13.3129 48.0436 14.4038 46.0596 16.0612 45.0246L9.45165 9.93976H2.87633C1.62917 9.93976 0.618164 8.84207 0.618164 7.48796V5.85342C0.618164 4.49931 1.62917 3.40161 2.87633 3.40161H12.5233C13.5961 3.40161 14.5207 4.22103 14.7357 5.36204L15.5981 9.93976H52.5551C54.0042 9.93976 55.0782 11.4007 54.7571 12.935L50.3092 34.1839C50.0755 35.3002 49.1616 36.0924 48.1072 36.0924ZM39.007 20.5643H34.4907V16.4779C34.4907 15.5751 33.8167 14.8434 32.9853 14.8434H31.4798C30.6483 14.8434 29.9744 15.5751 29.9744 16.4779V20.5643H25.458C24.6265 20.5643 23.9526 21.296 23.9526 22.1988V23.8333C23.9526 24.7361 24.6265 25.4679 25.458 25.4679H29.9744V29.5542C29.9744 30.457 30.6483 31.1888 31.4798 31.1888H32.9853C33.8167 31.1888 34.4907 30.457 34.4907 29.5542V25.4679H39.007C39.8385 25.4679 40.5125 24.7361 40.5125 23.8333V22.1988C40.5125 21.296 39.8385 20.5643 39.007 20.5643Z" fill="black"/>
</g>
<defs>
<clipPath id="clip0_2257_259">
<rect x="0.618164" y="0.132507" width="54.1961" height="58.8434" rx="10" fill="white"/>
</clipPath>
</defs>
</svg>
