<svg width="55" height="59" viewBox="0 0 55 59" fill="none" xmlns="http://www.w3.org/2000/svg">
<g clip-path="url(#clip0_2326_339)">
<path d="M48.2056 36.0924H20.7324L21.3458 39.3615H46.5016C47.9449 39.3615 49.0147 40.8224 48.6949 42.3566L48.1778 44.8366C49.9295 45.7635 51.1374 47.7209 51.1374 49.986C51.1374 53.1735 48.7457 55.7522 45.8119 55.7062C43.0169 55.6624 40.7183 53.1899 40.6428 50.144C40.6016 48.4801 41.2131 46.9721 42.2176 45.8995H22.5697C23.5422 46.938 24.1464 48.3847 24.1464 49.986C24.1464 53.2359 21.6603 55.853 18.648 55.7005C15.9732 55.5651 13.7979 53.2094 13.6574 50.2946C13.5488 48.0436 14.6354 46.0596 16.2863 45.0246L9.70281 9.93976H3.15348C1.91124 9.93976 0.904236 8.84207 0.904236 7.48796V5.85342C0.904236 4.49931 1.91124 3.40161 3.15348 3.40161H12.7623C13.8308 3.40161 14.7518 4.22103 14.9659 5.36204L15.825 9.93976H52.6359C54.0793 9.93976 55.1491 11.4007 54.8292 12.935L50.3988 34.1839C50.1661 35.3002 49.2558 36.0924 48.2056 36.0924ZM39.1414 20.5643H34.6429V16.4779C34.6429 15.5751 33.9716 14.8434 33.1434 14.8434H31.6439C30.8157 14.8434 30.1444 15.5751 30.1444 16.4779V20.5643H25.6459C24.8177 20.5643 24.1464 21.296 24.1464 22.1988V23.8333C24.1464 24.7361 24.8177 25.4679 25.6459 25.4679H30.1444V29.5542C30.1444 30.457 30.8157 31.1888 31.6439 31.1888H33.1434C33.9716 31.1888 34.6429 30.457 34.6429 29.5542V25.4679H39.1414C39.9696 25.4679 40.6409 24.7361 40.6409 23.8333V22.1988C40.6409 21.296 39.9696 20.5643 39.1414 20.5643Z" fill="black"/>
</g>
<defs>
<clipPath id="clip0_2326_339">
<rect x="0.904236" y="0.132568" width="53.9819" height="58.8434" rx="10" fill="white"/>
</clipPath>
</defs>
</svg>
