<svg width="50" height="50" viewBox="0 0 50 50" fill="none" xmlns="http://www.w3.org/2000/svg">
<g clip-path="url(#clip0_2060_1242)">
<path d="M0 2.34375C0 1.04492 0.928819 0 2.08333 0H6.03299C7.94271 0 9.63542 1.25 10.4253 3.125H46.1024C48.3854 3.125 50.0521 5.56641 49.4531 8.04688L45.8941 22.9199C45.1562 25.9863 42.6823 28.125 39.8611 28.125H14.8177L15.2865 30.9082C15.4774 32.0117 16.3368 32.8125 17.3351 32.8125H42.3611C43.5156 32.8125 44.4444 33.8574 44.4444 35.1562C44.4444 36.4551 43.5156 37.5 42.3611 37.5H17.3351C14.3316 37.5 11.7535 35.0977 11.1979 31.7871L6.71875 5.32227C6.65799 4.95117 6.37153 4.6875 6.03299 4.6875H2.08333C0.928819 4.6875 0 3.64258 0 2.34375ZM11.1111 45.3125C11.1111 44.6969 11.2189 44.0874 11.4283 43.5187C11.6377 42.95 11.9446 42.4332 12.3315 41.9979C12.7184 41.5627 13.1777 41.2174 13.6833 40.9818C14.1888 40.7462 14.7306 40.625 15.2778 40.625C15.825 40.625 16.3668 40.7462 16.8723 40.9818C17.3778 41.2174 17.8371 41.5627 18.2241 41.9979C18.611 42.4332 18.9179 42.95 19.1273 43.5187C19.3367 44.0874 19.4444 44.6969 19.4444 45.3125C19.4444 45.9281 19.3367 46.5376 19.1273 47.1063C18.9179 47.675 18.611 48.1918 18.2241 48.6271C17.8371 49.0623 17.3778 49.4076 16.8723 49.6432C16.3668 49.8788 15.825 50 15.2778 50C14.7306 50 14.1888 49.8788 13.6833 49.6432C13.1777 49.4076 12.7184 49.0623 12.3315 48.6271C11.9446 48.1918 11.6377 47.675 11.4283 47.1063C11.2189 46.5376 11.1111 45.9281 11.1111 45.3125ZM40.2778 40.625C41.3828 40.625 42.4427 41.1189 43.2241 41.9979C44.0055 42.877 44.4444 44.0693 44.4444 45.3125C44.4444 46.5557 44.0055 47.748 43.2241 48.6271C42.4427 49.5061 41.3828 50 40.2778 50C39.1727 50 38.1129 49.5061 37.3315 48.6271C36.5501 47.748 36.1111 46.5557 36.1111 45.3125C36.1111 44.0693 36.5501 42.877 37.3315 41.9979C38.1129 41.1189 39.1727 40.625 40.2778 40.625Z" fill="#87CEFA"/>
</g>
<defs>
<clipPath id="clip0_2060_1242">
<rect width="50" height="50" fill="white"/>
</clipPath>
</defs>
</svg>
