<svg width="55" height="59" viewBox="0 0 55 59" fill="none" xmlns="http://www.w3.org/2000/svg">
<g clip-path="url(#clip0_2067_20)">
<path d="M47.98 36.0924H20.1772L20.798 39.3615H46.2556C47.7162 39.3615 48.7989 40.8224 48.4752 42.3566L47.9519 44.8366C49.7246 45.7635 50.947 47.7209 50.947 49.986C50.947 53.1735 48.5267 55.7522 45.5576 55.7062C42.7291 55.6624 40.4029 53.1899 40.3265 50.144C40.2848 48.4801 40.9037 46.9721 41.9202 45.8995H22.0365C23.0207 46.938 23.6322 48.3847 23.6322 49.986C23.6322 53.2359 21.1162 55.853 18.0677 55.7005C15.3609 55.5651 13.1595 53.2094 13.0172 50.2946C12.9074 48.0436 14.007 46.0596 15.6777 45.0246L9.01524 9.93976H2.38732C1.13017 9.93976 0.111084 8.84207 0.111084 7.48796V5.85342C0.111084 4.49931 1.13017 3.40161 2.38732 3.40161H12.1115C13.1928 3.40161 14.1248 4.22103 14.3415 5.36204L15.2109 9.93976H52.4635C53.9242 9.93976 55.0068 11.4007 54.6831 12.935L50.1996 34.1839C49.9641 35.3002 49.0428 36.0924 47.98 36.0924ZM38.8071 20.5643H34.2546V16.4779C34.2546 15.5751 33.5752 14.8434 32.7371 14.8434H31.2196C30.3815 14.8434 29.7021 15.5751 29.7021 16.4779V20.5643H25.1497C24.3115 20.5643 23.6322 21.296 23.6322 22.1988V23.8333C23.6322 24.7361 24.3115 25.4679 25.1497 25.4679H29.7021V29.5542C29.7021 30.457 30.3815 31.1888 31.2196 31.1888H32.7371C33.5752 31.1888 34.2546 30.457 34.2546 29.5542V25.4679H38.8071C39.6452 25.4679 40.3246 24.7361 40.3246 23.8333V22.1988C40.3246 21.296 39.6452 20.5643 38.8071 20.5643Z" fill="black"/>
</g>
<defs>
<clipPath id="clip0_2067_20">
<rect x="0.111084" y="0.132507" width="54.6296" height="58.8434" rx="10" fill="white"/>
</clipPath>
</defs>
</svg>
