<svg width="122" height="26" viewBox="0 0 122 26" fill="none" xmlns="http://www.w3.org/2000/svg">
<path d="M109.196 13.3197C109.196 20.5464 110.343 24.1597 112.636 24.1597C114.929 24.1597 116.076 20.5464 116.076 13.3197C116.076 6.06637 114.929 2.43971 112.636 2.43971C110.343 2.43971 109.196 6.06637 109.196 13.3197ZM106.356 21.8797C104.809 19.533 104.036 16.6797 104.036 13.3197C104.036 9.95971 104.809 7.10637 106.356 4.75971C107.929 2.38637 110.023 1.19971 112.636 1.19971C115.249 1.19971 117.329 2.38637 118.876 4.75971C120.449 7.10637 121.236 9.95971 121.236 13.3197C121.236 16.6797 120.449 19.533 118.876 21.8797C117.329 24.2264 115.249 25.3997 112.636 25.3997C110.023 25.3997 107.929 24.2264 106.356 21.8797Z" fill="#FA0000"/>
<path d="M89.5866 13.3197C89.5866 20.5464 90.7332 24.1597 93.0266 24.1597C95.3199 24.1597 96.4666 20.5464 96.4666 13.3197C96.4666 6.06637 95.3199 2.43971 93.0266 2.43971C90.7332 2.43971 89.5866 6.06637 89.5866 13.3197ZM86.7466 21.8797C85.1999 19.533 84.4266 16.6797 84.4266 13.3197C84.4266 9.95971 85.1999 7.10637 86.7466 4.75971C88.3199 2.38637 90.4132 1.19971 93.0266 1.19971C95.6399 1.19971 97.7199 2.38637 99.2666 4.75971C100.84 7.10637 101.627 9.95971 101.627 13.3197C101.627 16.6797 100.84 19.533 99.2666 21.8797C97.7199 24.2264 95.6399 25.3997 93.0266 25.3997C90.4132 25.3997 88.3199 24.2264 86.7466 21.8797Z" fill="#FA0000"/>
<path d="M69.9773 13.3197C69.9773 20.5464 71.1239 24.1597 73.4173 24.1597C75.7106 24.1597 76.8573 20.5464 76.8573 13.3197C76.8573 6.06637 75.7106 2.43971 73.4173 2.43971C71.1239 2.43971 69.9773 6.06637 69.9773 13.3197ZM67.1373 21.8797C65.5906 19.533 64.8173 16.6797 64.8173 13.3197C64.8173 9.95971 65.5906 7.10637 67.1373 4.75971C68.7106 2.38637 70.8039 1.19971 73.4173 1.19971C76.0306 1.19971 78.1106 2.38637 79.6573 4.75971C81.2306 7.10637 82.0173 9.95971 82.0173 13.3197C82.0173 16.6797 81.2306 19.533 79.6573 21.8797C78.1106 24.2264 76.0306 25.3997 73.4173 25.3997C70.8039 25.3997 68.7106 24.2264 67.1373 21.8797Z" fill="#FA0000"/>
<path d="M56.4681 22.9199C56.4681 22.1465 56.7348 21.5332 57.2681 21.0799C57.8281 20.5999 58.4681 20.3599 59.1881 20.3599C59.8281 20.3599 60.4548 20.5865 61.0681 21.0399C61.6815 21.4665 61.9881 22.0532 61.9881 22.7999C61.9881 23.5732 61.7081 24.1999 61.1481 24.6799C60.5881 25.1599 59.9481 25.3999 59.2281 25.3999C58.5881 25.3999 57.9615 25.1732 57.3481 24.7199C56.7615 24.2665 56.4681 23.6665 56.4681 22.9199Z" fill="#FA0000"/>
<path d="M42.1388 10.8399C43.0454 10.4132 44.0321 10.1999 45.0988 10.1999C50.5654 10.1999 53.2988 12.6266 53.2988 17.4799C53.2988 19.9066 52.5521 21.8399 51.0588 23.2799C49.5921 24.6932 47.6588 25.3999 45.2588 25.3999C42.6721 25.3999 40.6054 24.5199 39.0588 22.7599C37.5121 20.9732 36.7388 18.7332 36.7388 16.0399C36.7388 13.7999 37.1521 11.7199 37.9788 9.79988C38.8321 7.85322 39.8854 6.27988 41.1388 5.07988C42.3921 3.85322 43.6721 2.87988 44.9788 2.15988C46.2854 1.43988 47.4988 1.01322 48.6188 0.879883L49.1388 2.23988C45.3254 3.19988 42.9921 6.06655 42.1388 10.8399ZM41.9388 12.1199C41.8054 13.1332 41.7388 14.4399 41.7388 16.0399C41.7388 18.8932 42.0321 20.9599 42.6188 22.2399C43.2054 23.4932 44.0854 24.1199 45.2588 24.1199C47.2854 24.1199 48.2988 21.7999 48.2988 17.1599C48.2988 16.4932 48.2854 15.9866 48.2588 15.6399C48.2588 15.2666 48.2054 14.7866 48.0988 14.1999C47.9921 13.5865 47.8321 13.1199 47.6188 12.7999C47.4321 12.4799 47.1254 12.1999 46.6988 11.9599C46.2721 11.6932 45.7654 11.5599 45.1788 11.5599C43.7654 11.5599 42.6854 11.7466 41.9388 12.1199Z" fill="#FA0000"/>
<path d="M29.1294 1.6001V22.5601C29.1294 23.1201 29.5694 23.5334 30.4494 23.8001C31.3294 24.0401 32.3161 24.1601 33.4094 24.1601V25.0001H19.8894V24.1601C20.9827 24.1601 21.9694 24.0401 22.8494 23.8001C23.7294 23.5334 24.1694 23.1201 24.1694 22.5601V7.6001C22.8094 8.4801 21.6094 9.3201 20.5694 10.1201L20.2894 9.4401L27.4094 1.6001H29.1294Z" fill="#FA0000"/>
<path d="M9.52003 1.6001V22.5601C9.52003 23.1201 9.96003 23.5334 10.84 23.8001C11.72 24.0401 12.7067 24.1601 13.8 24.1601V25.0001H0.280029V24.1601C1.37336 24.1601 2.36003 24.0401 3.24003 23.8001C4.12003 23.5334 4.56003 23.1201 4.56003 22.5601V7.6001C3.20003 8.4801 2.00003 9.3201 0.960029 10.1201L0.680029 9.4401L7.80003 1.6001H9.52003Z" fill="#FA0000"/>
</svg>
