<svg width="20" height="20" viewBox="0 0 20 20" fill="none" xmlns="http://www.w3.org/2000/svg">
<g clip-path="url(#clip0_2106_900)">
<path d="M3.75 3.25H3.25V3.75V4.09375V5.625V7.20312V9.68761L0.547779 7.68774C0.652839 7.22599 0.920361 6.80935 1.30823 6.52369L1.30968 6.52261L2.17296 5.88199L2.375 5.73206V5.48047V3.75C2.375 2.99099 2.99099 2.375 3.75 2.375H6.74219H6.90698L7.03947 2.27702L8.98869 0.835616L8.98942 0.835079C9.28279 0.617319 9.63549 0.5 10 0.5C10.3643 0.5 10.7177 0.617199 11.0122 0.832345C11.0125 0.832615 11.0129 0.832884 11.0133 0.833154L12.96 2.27664L13.0927 2.375H13.2578H16.25C17.009 2.375 17.625 2.99099 17.625 3.75V5.48047V5.73206L17.827 5.88199L18.6903 6.52262L18.6918 6.52369C19.0796 6.80935 19.3472 7.22599 19.4522 7.68774L16.75 9.68761V7.20312V5.625V4.09375V3.75V3.25H16.25H15.7891H14.375H11.5859H8.41406H5.625H4.21094H3.75ZM11.7994 16.1543L19.5 10.4497V17.5C19.5 18.6028 18.6028 19.5 17.5 19.5H2.5C1.39724 19.5 0.5 18.6028 0.5 17.5V10.4497L8.20237 16.1557L8.20291 16.1561C8.72145 16.5391 9.35267 16.75 10 16.75C10.6447 16.75 11.2771 16.5446 11.7984 16.1551C11.7988 16.1548 11.7991 16.1546 11.7994 16.1543ZM13.125 6.75C13.1926 6.75 13.25 6.80739 13.25 6.875C13.25 6.94261 13.1926 7 13.125 7H6.875C6.80739 7 6.75 6.94261 6.75 6.875C6.75 6.80739 6.80739 6.75 6.875 6.75H13.125ZM13.125 9.25C13.1926 9.25 13.25 9.30739 13.25 9.375C13.25 9.44261 13.1926 9.5 13.125 9.5H6.875C6.80739 9.5 6.75 9.44261 6.75 9.375C6.75 9.30739 6.80739 9.25 6.875 9.25H13.125Z" fill="#2C2C68" stroke="white"/>
</g>
<defs>
<clipPath id="clip0_2106_900">
<rect width="20" height="20" fill="white"/>
</clipPath>
</defs>
</svg>
