<svg width="9" height="10" viewBox="0 0 9 10" fill="none" xmlns="http://www.w3.org/2000/svg">
<g clip-path="url(#clip0_2334_829)">
<path d="M8.30769 0.714286H6.75V2.32143H8.30769V0.714286ZM6.40385 0.714286H4.67308V2.32143H6.40385V0.714286ZM8.30769 2.67857H6.75V4.46429H8.30769V2.67857ZM6.40385 2.67857H4.67308V4.46429H6.40385V2.67857ZM8.30769 4.82143H6.75V6.42857H8.30769V4.82143ZM4.32692 0.714286H2.59615V2.32143H4.32692V0.714286ZM6.40385 4.82143H4.67308V6.42857H6.40385V4.82143ZM2.25 0.714286H0.692307V2.32143H2.25V0.714286ZM4.32692 2.67857H2.59615V4.46429H4.32692V2.67857ZM6.23077 7.5V9.10714C6.23077 9.15551 6.2479 9.19736 6.28215 9.2327C6.31641 9.26804 6.35697 9.28571 6.40385 9.28571H6.75C6.79688 9.28571 6.83744 9.26804 6.87169 9.2327C6.90595 9.19736 6.92308 9.15551 6.92308 9.10714V7.5C6.92308 7.45164 6.90595 7.40978 6.87169 7.37444C6.83744 7.3391 6.79688 7.32143 6.75 7.32143H6.40385C6.35697 7.32143 6.31641 7.3391 6.28215 7.37444C6.2479 7.40978 6.23077 7.45164 6.23077 7.5ZM2.25 2.67857H0.692307V4.46429H2.25V2.67857ZM4.32692 4.82143H2.59615V6.42857H4.32692V4.82143ZM2.25 4.82143H0.692307V6.42857H2.25V4.82143ZM2.07692 7.5V9.10714C2.07692 9.15551 2.09405 9.19736 2.1283 9.2327C2.16256 9.26804 2.20312 9.28571 2.25 9.28571H2.59615C2.64303 9.28571 2.68359 9.26804 2.71785 9.2327C2.7521 9.19736 2.76923 9.15551 2.76923 9.10714V7.5C2.76923 7.45164 2.7521 7.40978 2.71785 7.37444C2.68359 7.3391 2.64303 7.32143 2.59615 7.32143H2.25C2.20312 7.32143 2.16256 7.3391 2.1283 7.37444C2.09405 7.40978 2.07692 7.45164 2.07692 7.5ZM0 7.85714V0.714286C0 0.520833 0.0685091 0.353422 0.205528 0.212053C0.342547 0.0706844 0.504807 0 0.692307 0H8.30769C8.49519 0 8.65745 0.0706844 8.79447 0.212053C8.93149 0.353422 9 0.520833 9 0.714286V7.85714C9 8.0506 8.93149 8.21801 8.79447 8.35938C8.65745 8.50074 8.49519 8.57143 8.30769 8.57143H7.61538V9.10714C7.61538 9.35268 7.53065 9.56287 7.36118 9.73772C7.19171 9.91257 6.98798 10 6.75 10H6.40385C6.16587 10 5.96214 9.91257 5.79267 9.73772C5.6232 9.56287 5.53846 9.35268 5.53846 9.10714V8.57143H3.46154V9.10714C3.46154 9.35268 3.3768 9.56287 3.20733 9.73772C3.03786 9.91257 2.83413 10 2.59615 10H2.25C2.01202 10 1.80829 9.91257 1.63882 9.73772C1.46935 9.56287 1.38461 9.35268 1.38461 9.10714V8.57143H0.692307C0.504807 8.57143 0.342547 8.50074 0.205528 8.35938C0.0685091 8.21801 0 8.0506 0 7.85714Z" fill="black"/>
</g>
<defs>
<clipPath id="clip0_2334_829">
<rect width="9" height="10" fill="white" transform="matrix(-1 0 0 -1 9 10)"/>
</clipPath>
</defs>
</svg>
