<svg width="46" height="35" viewBox="0 0 46 35" fill="none" xmlns="http://www.w3.org/2000/svg">
<path d="M0 19.5C0 12.0442 6.04416 6 13.5 6H29.5C36.9558 6 43 12.0442 43 19.5C43 26.9558 36.9558 33 29.5 33H13.5C6.04416 33 0 26.9558 0 19.5Z" fill="#FA0000"/>
<path d="M40.2308 12.7002L33.4908 23.6002H32.6908L39.4308 12.7002H40.2308ZM33.5108 13.4602C33.3775 13.8069 33.3108 14.2136 33.3108 14.6802C33.3108 15.1469 33.3775 15.5602 33.5108 15.9202C33.6575 16.2669 33.8441 16.4402 34.0708 16.4402C34.2975 16.4402 34.4775 16.2669 34.6108 15.9202C34.7575 15.5602 34.8308 15.1469 34.8308 14.6802C34.8308 14.2136 34.7575 13.8069 34.6108 13.4602C34.4775 13.1002 34.2975 12.9202 34.0708 12.9202C33.8441 12.9202 33.6575 13.1002 33.5108 13.4602ZM32.4108 16.4002C31.8908 15.9069 31.6308 15.3336 31.6308 14.6802C31.6308 14.0269 31.8908 13.4602 32.4108 12.9802C32.9308 12.4869 33.4841 12.2402 34.0708 12.2402C34.6575 12.2402 35.2108 12.4869 35.7308 12.9802C36.2508 13.4602 36.5108 14.0269 36.5108 14.6802C36.5108 15.3336 36.2508 15.9069 35.7308 16.4002C35.2108 16.8802 34.6575 17.1202 34.0708 17.1202C33.4841 17.1202 32.9308 16.8802 32.4108 16.4002ZM38.2708 20.4002C38.1375 20.7469 38.0708 21.1536 38.0708 21.6202C38.0708 22.0869 38.1375 22.5002 38.2708 22.8602C38.4175 23.2069 38.6041 23.3802 38.8308 23.3802C39.0575 23.3802 39.2375 23.2069 39.3708 22.8602C39.5175 22.5002 39.5908 22.0869 39.5908 21.6202C39.5908 21.1536 39.5175 20.7469 39.3708 20.4002C39.2375 20.0402 39.0575 19.8602 38.8308 19.8602C38.6041 19.8602 38.4175 20.0402 38.2708 20.4002ZM37.1708 23.3402C36.6508 22.8469 36.3908 22.2736 36.3908 21.6202C36.3908 20.9669 36.6508 20.4002 37.1708 19.9202C37.6908 19.4269 38.2441 19.1802 38.8308 19.1802C39.4175 19.1802 39.9708 19.4269 40.4908 19.9202C41.0108 20.4002 41.2708 20.9669 41.2708 21.6202C41.2708 22.2736 41.0108 22.8469 40.4908 23.3402C39.9708 23.8202 39.4175 24.0602 38.8308 24.0602C38.2441 24.0602 37.6908 23.8202 37.1708 23.3402Z" fill="white"/>
<path d="M24.4261 18.1601C24.4261 21.7734 24.9995 23.5801 26.1461 23.5801C27.2928 23.5801 27.8661 21.7734 27.8661 18.1601C27.8661 14.5334 27.2928 12.7201 26.1461 12.7201C24.9995 12.7201 24.4261 14.5334 24.4261 18.1601ZM23.0061 22.4401C22.2328 21.2668 21.8461 19.8401 21.8461 18.1601C21.8461 16.4801 22.2328 15.0534 23.0061 13.8801C23.7928 12.6934 24.8395 12.1001 26.1461 12.1001C27.4528 12.1001 28.4928 12.6934 29.2661 13.8801C30.0528 15.0534 30.4461 16.4801 30.4461 18.1601C30.4461 19.8401 30.0528 21.2668 29.2661 22.4401C28.4928 23.6134 27.4528 24.2001 26.1461 24.2001C24.8395 24.2001 23.7928 23.6134 23.0061 22.4401Z" fill="white"/>
<path d="M12.2414 24.0001C12.2414 23.7734 12.4214 23.4201 12.7814 22.9401C13.1547 22.4601 13.6014 21.9334 14.1214 21.3601C14.6547 20.7734 15.1814 20.1668 15.7014 19.5401C16.2214 18.9001 16.6614 18.2401 17.0214 17.5601C17.3947 16.8668 17.5814 16.2534 17.5814 15.7201C17.5814 15.1334 17.4281 14.5868 17.1214 14.0801C16.8147 13.5601 16.4281 13.3001 15.9614 13.3001C15.3881 13.3001 14.8747 13.4001 14.4214 13.6001C13.9681 13.8001 13.6414 14.0201 13.4414 14.2601C13.2414 14.5001 13.0614 14.7201 12.9014 14.9201C12.7547 15.1201 12.6547 15.2201 12.6014 15.2201C12.4947 15.2201 12.4414 15.1534 12.4414 15.0201C12.4414 14.8734 12.5214 14.6534 12.6814 14.3601C12.8547 14.0668 13.0947 13.7468 13.4014 13.4001C13.7214 13.0534 14.1547 12.7534 14.7014 12.5001C15.2614 12.2334 15.8681 12.1001 16.5214 12.1001C17.7481 12.1001 18.6547 12.3934 19.2414 12.9801C19.8281 13.5534 20.1214 14.2601 20.1214 15.1001C20.1214 15.6068 19.8681 16.2401 19.3614 17.0001C18.8547 17.7468 18.3014 18.4334 17.7014 19.0601C17.1014 19.6734 16.5481 20.2668 16.0414 20.8401C15.5347 21.4001 15.2814 21.7734 15.2814 21.9601H18.9014C19.0614 21.9601 19.2147 21.9001 19.3614 21.7801C19.5214 21.6468 19.6347 21.5334 19.7014 21.4401C19.7681 21.3334 19.8814 21.1601 20.0414 20.9201H20.4414L19.9214 24.0001H12.2414Z" fill="white"/>
<path d="M5.08002 17.2002H10.36V18.0802H5.08002V17.2002Z" fill="white"/>
</svg>
