<svg width="102" height="36" viewBox="0 0 102 36" fill="none" xmlns="http://www.w3.org/2000/svg">
<path d="M85.016 13.1598C84.0453 13.1598 83.2506 12.7972 82.632 12.0718C82.024 11.3465 81.72 10.2852 81.72 8.88784C81.72 7.46918 82.0293 6.39718 82.648 5.67184C83.2666 4.94651 84.0773 4.58384 85.08 4.58384C85.496 4.58384 85.864 4.64251 86.184 4.75984C86.504 4.86651 86.776 5.01584 87 5.20784C87.2346 5.39984 87.432 5.61851 87.592 5.86384H87.672C87.6293 5.63984 87.5866 5.35184 87.544 4.99984C87.512 4.63718 87.496 4.32251 87.496 4.05584V3.65584H85.032V2.10384H87.496V0.839844H89.88V2.10384H91.096V3.65584H89.88V12.9998H88.056L87.592 11.8638H87.496C87.3466 12.0985 87.1546 12.3172 86.92 12.5198C86.696 12.7118 86.4293 12.8665 86.12 12.9838C85.8106 13.1012 85.4426 13.1598 85.016 13.1598ZM85.848 11.2558C86.5093 11.2558 86.9733 11.0798 87.24 10.7278C87.5066 10.3758 87.6453 9.84251 87.656 9.12784V8.90384C87.656 8.13584 87.5226 7.54918 87.256 7.14384C87 6.72784 86.52 6.51984 85.816 6.51984C85.2933 6.51984 84.8826 6.72784 84.584 7.14384C84.2853 7.54918 84.136 8.14118 84.136 8.91984C84.136 9.69851 84.2853 10.2852 84.584 10.6798C84.8826 11.0638 85.304 11.2558 85.848 11.2558ZM89.48 15.5278H82.84V14.4398H89.48V15.5278Z" fill="#E1E1E1"/>
<path fill-rule="evenodd" clip-rule="evenodd" d="M81 12H1V11H81V12Z" fill="#E1E1E1"/>
<path d="M71.7475 12.7C71.7475 17.2167 72.4641 19.475 73.8975 19.475C75.3308 19.475 76.0475 17.2167 76.0475 12.7C76.0475 8.16667 75.3308 5.9 73.8975 5.9C72.4641 5.9 71.7475 8.16667 71.7475 12.7ZM69.9725 18.05C69.0058 16.5833 68.5225 14.8 68.5225 12.7C68.5225 10.6 69.0058 8.81667 69.9725 7.35C70.9558 5.86667 72.2641 5.125 73.8975 5.125C75.5308 5.125 76.8308 5.86667 77.7975 7.35C78.7808 8.81667 79.2725 10.6 79.2725 12.7C79.2725 14.8 78.7808 16.5833 77.7975 18.05C76.8308 19.5167 75.5308 20.25 73.8975 20.25C72.2641 20.25 70.9558 19.5167 69.9725 18.05Z" fill="#E1E1E1"/>
<path d="M59.4916 12.7C59.4916 17.2167 60.2083 19.475 61.6416 19.475C63.0749 19.475 63.7916 17.2167 63.7916 12.7C63.7916 8.16667 63.0749 5.9 61.6416 5.9C60.2083 5.9 59.4916 8.16667 59.4916 12.7ZM57.7166 18.05C56.7499 16.5833 56.2666 14.8 56.2666 12.7C56.2666 10.6 56.7499 8.81667 57.7166 7.35C58.6999 5.86667 60.0083 5.125 61.6416 5.125C63.2749 5.125 64.5749 5.86667 65.5416 7.35C66.5249 8.81667 67.0166 10.6 67.0166 12.7C67.0166 14.8 66.5249 16.5833 65.5416 18.05C64.5749 19.5167 63.2749 20.25 61.6416 20.25C60.0083 20.25 58.6999 19.5167 57.7166 18.05Z" fill="#E1E1E1"/>
<path d="M47.2357 12.7C47.2357 17.2167 47.9524 19.475 49.3857 19.475C50.8191 19.475 51.5357 17.2167 51.5357 12.7C51.5357 8.16667 50.8191 5.9 49.3857 5.9C47.9524 5.9 47.2357 8.16667 47.2357 12.7ZM45.4607 18.05C44.4941 16.5833 44.0107 14.8 44.0107 12.7C44.0107 10.6 44.4941 8.81667 45.4607 7.35C46.4441 5.86667 47.7524 5.125 49.3857 5.125C51.0191 5.125 52.3191 5.86667 53.2857 7.35C54.2691 8.81667 54.7607 10.6 54.7607 12.7C54.7607 14.8 54.2691 16.5833 53.2857 18.05C52.3191 19.5167 51.0191 20.25 49.3857 20.25C47.7524 20.25 46.4441 19.5167 45.4607 18.05Z" fill="#E1E1E1"/>
<path d="M38.7925 18.7001C38.7925 18.2168 38.9592 17.8334 39.2925 17.5501C39.6425 17.2501 40.0425 17.1001 40.4925 17.1001C40.8925 17.1001 41.2842 17.2418 41.6675 17.5251C42.0509 17.7918 42.2425 18.1584 42.2425 18.6251C42.2425 19.1084 42.0675 19.5001 41.7175 19.8001C41.3675 20.1001 40.9675 20.2501 40.5175 20.2501C40.1175 20.2501 39.7259 20.1084 39.3425 19.8251C38.9759 19.5418 38.7925 19.1668 38.7925 18.7001Z" fill="#E1E1E1"/>
<path d="M29.0867 10.375C30.4534 10.375 31.6534 10.5417 32.6867 10.875C33.7201 11.2083 34.4951 11.6333 35.0117 12.15C35.5451 12.6667 35.9367 13.1833 36.1867 13.7C36.4367 14.2167 36.5617 14.7167 36.5617 15.2C36.5617 18.5667 34.9451 20.25 31.7117 20.25C30.6784 20.25 29.7534 20.1083 28.9367 19.825C28.1201 19.525 27.5451 19.225 27.2117 18.925C26.8784 18.625 26.7117 18.3833 26.7117 18.2C26.7117 17.7 26.7701 17.35 26.8867 17.15C27.0201 16.95 27.2617 16.85 27.6117 16.85C27.8117 16.85 28.0117 16.9917 28.2117 17.275C28.4284 17.5417 28.6284 17.8417 28.8117 18.175C28.9951 18.4917 29.3117 18.7917 29.7617 19.075C30.2117 19.3417 30.7451 19.475 31.3617 19.475C32.8617 19.475 33.6117 18.2167 33.6117 15.7C33.6117 15.1 33.5534 14.5917 33.4367 14.175C33.3201 13.7583 33.0867 13.3417 32.7367 12.925C32.3867 12.5083 31.8201 12.2 31.0367 12C30.2534 11.7833 29.2617 11.675 28.0617 11.675L28.8867 5.375H35.8617L35.2617 7.525H29.4617L29.0867 10.375Z" fill="#E1E1E1"/>
<path d="M22.4058 5.375V14.875H24.4308V15.625H22.4058V18.975C22.5558 19.3083 23.0808 19.475 23.9808 19.475V20H17.7058V19.475C18.6058 19.475 19.1308 19.3083 19.2808 18.975V15.625H14.3558L21.2558 5.375H22.4058ZM19.2808 14.875V9.675L15.7558 14.875H19.2808Z" fill="#E1E1E1"/>
<path d="M9.44999 5.375V18.475C9.44999 18.825 9.72499 19.0833 10.275 19.25C10.825 19.4 11.4417 19.475 12.125 19.475V20H3.67499V19.475C4.35832 19.475 4.97499 19.4 5.52499 19.25C6.07499 19.0833 6.34999 18.825 6.34999 18.475V9.125C5.49999 9.675 4.74999 10.2 4.09999 10.7L3.92499 10.275L8.37499 5.375H9.44999Z" fill="#E1E1E1"/>
</svg>
