<svg width="20" height="20" viewBox="0 0 20 20" fill="none" xmlns="http://www.w3.org/2000/svg">
<g clip-path="url(#clip0_2106_907)">
<path d="M15.1385 5.75C14.8335 4.02363 14.3431 2.48134 13.7093 1.25117C15.7889 2.13546 17.4903 3.7387 18.496 5.75H15.1385ZM11.9377 2.75403L11.9379 2.7545C12.3088 3.58579 12.6213 4.59866 12.8498 5.75H7.15074C7.37965 4.60278 7.6944 3.58923 8.06261 2.75332C8.45503 1.87149 8.8785 1.26503 9.25858 0.901427C9.63088 0.549347 9.87685 0.5 10 0.5C10.1232 0.5 10.3691 0.54935 10.7414 0.901429C11.1216 1.26513 11.5452 1.87182 11.9377 2.75403ZM9.25865 19.0986C8.89235 18.7482 8.48575 18.1723 8.10547 17.3416V17.3388L8.06208 17.2416C7.69135 16.4106 7.37892 15.3983 7.15054 14.25H12.8493C12.6203 15.3974 12.3056 16.4103 11.9375 17.2425C11.5447 18.1252 11.1208 18.732 10.7405 19.0956C10.3681 19.4513 10.1224 19.5 10 19.5C9.87686 19.5 9.63091 19.4507 9.25865 19.0986ZM13.25 10C13.25 10.688 13.2199 11.356 13.1657 12H6.83284C6.7777 11.3576 6.75 10.6896 6.75 10C6.75 9.31204 6.78013 8.64401 6.8343 8H13.1672C13.2223 8.64243 13.25 9.31043 13.25 10ZM19.2883 12H15.4222C15.4735 11.3498 15.5 10.6819 15.5 10C15.5 9.31808 15.4735 8.65018 15.4222 8H19.2883C19.4272 8.64519 19.5 9.31319 19.5 10C19.5 10.6868 19.4272 11.3548 19.2883 12ZM6.29107 1.25047C5.65704 2.48076 5.16658 4.02331 4.86155 5.75H1.5009C2.50905 3.7379 4.20953 2.13451 6.29107 1.25047ZM0.5 10C0.5 9.31319 0.572791 8.64519 0.711713 8H4.57782C4.52654 8.65018 4.5 9.31808 4.5 10C4.5 10.6819 4.52654 11.3498 4.57782 12H0.711713C0.572791 11.3548 0.5 10.6868 0.5 10ZM4.86155 14.25C5.16658 15.9767 5.65704 17.5192 6.29107 18.7495C4.20953 17.8655 2.50905 16.2621 1.5009 14.25H4.86155ZM15.1418 14.25H18.4991C17.4912 16.2617 15.7914 17.8649 13.7125 18.749C14.3457 17.5185 14.8348 15.976 15.1418 14.25Z" fill="#2C2C68" stroke="white"/>
</g>
<defs>
<clipPath id="clip0_2106_907">
<rect width="20" height="20" fill="white"/>
</clipPath>
</defs>
</svg>
