<svg width="12" height="12" viewBox="0 0 12 12" fill="none" xmlns="http://www.w3.org/2000/svg">
<g clip-path="url(#clip0_2060_1219)">
<path d="M11.9958 5.98828C11.9958 6.41016 11.6833 6.74063 11.3292 6.74063H10.6625L10.6771 10.4953C10.6771 10.5586 10.6729 10.6219 10.6667 10.6852V11.0625C10.6667 11.5805 10.2937 12 9.83333 12H9.5C9.47708 12 9.45417 12 9.43125 11.9977C9.40208 12 9.37292 12 9.34375 12H8.66667H8.16667C7.70625 12 7.33333 11.5805 7.33333 11.0625V10.5V9C7.33333 8.58516 7.03542 8.25 6.66667 8.25H5.33333C4.96458 8.25 4.66667 8.58516 4.66667 9V10.5V11.0625C4.66667 11.5805 4.29375 12 3.83333 12H3.33333H2.66875C2.6375 12 2.60625 11.9977 2.575 11.9953C2.55 11.9977 2.525 12 2.5 12H2.16667C1.70625 12 1.33333 11.5805 1.33333 11.0625V8.4375C1.33333 8.41641 1.33333 8.39297 1.33542 8.37188V6.74063H0.666667C0.291667 6.74063 0 6.4125 0 5.98828C0 5.77734 0.0625 5.58984 0.208333 5.42578L5.55 0.1875C5.69583 0.0234375 5.8625 0 6.00833 0C6.15417 0 6.32083 0.046875 6.44583 0.164062L11.7667 5.42578C11.9333 5.58984 12.0167 5.77734 11.9958 5.98828Z" fill="white"/>
</g>
<defs>
<clipPath id="clip0_2060_1219">
<rect width="12" height="12" fill="white"/>
</clipPath>
</defs>
</svg>
