<svg width="24" height="24" viewBox="0 0 24 24" fill="none" xmlns="http://www.w3.org/2000/svg">
<path fill-rule="evenodd" clip-rule="evenodd" d="M11.4 18.4C9.264 18.4 5 19.472 5 21.6V23.2C5 23.64 5.36 24 5.8 24H17C17.44 24 17.8 23.64 17.8 23.2V21.6C17.8 19.472 13.536 18.4 11.4 18.4Z" fill="black"/>
<path d="M11.8001 20C13.5674 20 15.0001 18.5673 15.0001 16.8C15.0001 15.0327 13.5674 13.6 11.8001 13.6C10.0328 13.6 8.6001 15.0327 8.6001 16.8C8.6001 18.5673 10.0328 20 11.8001 20Z" fill="#E1E1E1"/>
<path d="M11.8001 18.4C13.5674 18.4 15.0001 16.9673 15.0001 15.2C15.0001 13.4327 13.5674 12 11.8001 12C10.0328 12 8.6001 13.4327 8.6001 15.2C8.6001 16.9673 10.0328 18.4 11.8001 18.4Z" fill="black"/>
</svg>
