<svg width="20" height="20" viewBox="0 0 20 20" fill="none" xmlns="http://www.w3.org/2000/svg">
<g clip-path="url(#clip0_2106_904)">
<path d="M19.5 7.5C19.5 8.22284 19.1707 9.1509 18.5704 10.2174C17.9772 11.2712 17.1519 12.4043 16.2329 13.5224C14.396 15.7571 12.2232 17.8861 10.893 19.1347C10.6831 19.3303 10.357 19.4482 10 19.4482C9.64302 19.4482 9.31691 19.3303 9.10701 19.1347C7.77677 17.8861 5.60397 15.7571 3.76712 13.5224C2.84811 12.4043 2.02279 11.2712 1.42961 10.2174C0.829312 9.1509 0.5 8.22284 0.5 7.5C0.5 5.62246 1.51439 3.88373 3.22969 2.59727C4.94508 1.31072 7.33739 0.5 10 0.5C12.6626 0.5 15.0549 1.31072 16.7703 2.59727C18.4856 3.88373 19.5 5.62246 19.5 7.5ZM12.657 5.33223C11.9342 4.79009 10.9774 4.5 10 4.5C9.02264 4.5 8.06584 4.79009 7.34298 5.33223C6.61736 5.87644 6.16667 6.65032 6.16667 7.5C6.16667 8.34968 6.61736 9.12356 7.34298 9.66777C8.06584 10.2099 9.02264 10.5 10 10.5C10.9774 10.5 11.9342 10.2099 12.657 9.66777C13.3826 9.12356 13.8333 8.34968 13.8333 7.5C13.8333 6.65032 13.3826 5.87644 12.657 5.33223Z" fill="#2C2C68" stroke="white"/>
</g>
<defs>
<clipPath id="clip0_2106_904">
<rect width="20" height="20" fill="white"/>
</clipPath>
</defs>
</svg>
