<svg width="30" height="30" viewBox="0 0 30 30" fill="none" xmlns="http://www.w3.org/2000/svg">
<g clip-path="url(#clip0_2106_769)">
<path d="M18.3333 8.4375C18.3333 5.84766 20.1979 3.75 22.5 3.75C24.8021 3.75 26.6667 5.84766 26.6667 8.4375V11.25C26.6667 12.2871 27.4115 13.125 28.3333 13.125C29.2552 13.125 30 12.2871 30 11.25V8.4375C30 3.7793 26.6406 0 22.5 0C18.3594 0 15 3.7793 15 8.4375V11.25H3.33333C1.49479 11.25 0 12.9316 0 15V26.25C0 28.3184 1.49479 30 3.33333 30H20C21.8385 30 23.3333 28.3184 23.3333 26.25V15C23.3333 12.9316 21.8385 11.25 20 11.25H18.3333V8.4375Z" fill="white"/>
<path d="M15 11.75H15.5V11.25V8.4375C15.5 3.99845 18.6893 0.5 22.5 0.5C26.3107 0.5 29.5 3.99845 29.5 8.4375V11.25C29.5 12.068 28.9253 12.625 28.3333 12.625C27.7413 12.625 27.1667 12.068 27.1667 11.25V8.4375C27.1667 5.6285 25.132 3.25 22.5 3.25C19.868 3.25 17.8333 5.6285 17.8333 8.4375V11.25V11.75H18.3333H20C21.5087 11.75 22.8333 13.1508 22.8333 15V26.25C22.8333 28.0992 21.5087 29.5 20 29.5H3.33333C1.82467 29.5 0.5 28.0992 0.5 26.25V15C0.5 13.1508 1.82467 11.75 3.33333 11.75H15Z" stroke="#87CEFA" stroke-opacity="0.5"/>
</g>
<defs>
<clipPath id="clip0_2106_769">
<rect width="30" height="30" fill="white"/>
</clipPath>
</defs>
</svg>
