<svg width="20" height="20" viewBox="0 0 20 20" fill="none" xmlns="http://www.w3.org/2000/svg">
<g clip-path="url(#clip0_2106_897)">
<path d="M4.7214 0.537096L4.72161 0.537038C5.21812 0.401393 5.73526 0.640191 5.95523 1.09804L5.97987 1.15718L7.54237 4.90718L7.54245 4.90738C7.7229 5.33991 7.59847 5.83865 7.23432 6.13636L5.30855 7.71056L5.00583 7.95803L5.17301 8.31148C6.52325 11.166 8.83399 13.4768 11.6885 14.827L12.0416 14.994L12.2891 14.6919L13.8672 12.7662L13.8672 12.7662L13.869 12.764C14.1617 12.4027 14.6628 12.2766 15.0966 12.4576L15.0968 12.4577L18.8468 14.0202L18.8478 14.0206C19.3408 14.2247 19.6039 14.7627 19.463 15.2784L19.4629 15.2786L18.5258 18.7147C18.5258 18.7149 18.5257 18.7151 18.5257 18.7153C18.3973 19.1795 17.9763 19.5 17.5 19.5C8.11208 19.5 0.5 11.8879 0.5 2.50003C0.5 2.02375 0.82053 1.60272 1.2847 1.47438C1.2849 1.47432 1.2851 1.47427 1.28531 1.47421L4.7214 0.537096Z" fill="#2C2C68" stroke="white"/>
</g>
<defs>
<clipPath id="clip0_2106_897">
<rect width="20" height="20" fill="white"/>
</clipPath>
</defs>
</svg>
