<svg width="50" height="50" viewBox="0 0 50 50" fill="none" xmlns="http://www.w3.org/2000/svg">
<g clip-path="url(#clip0_2183_751)">
<path d="M7.14286 0C3.20312 0 0 3.20312 0 7.14286V42.8571C0 46.7969 3.20312 50 7.14286 50H18.1027V33.7277H12.2098V25H18.1027V21.2388C18.1027 11.5179 22.5 7.00893 32.0536 7.00893C33.8616 7.00893 36.9866 7.36607 38.2701 7.72321V15.625C37.6004 15.558 36.4286 15.5134 34.9665 15.5134C30.279 15.5134 28.471 17.2879 28.471 21.8973V25H37.8013L36.1942 33.7277H28.4598V50H42.8571C46.7969 50 50 46.7969 50 42.8571V7.14286C50 3.20312 46.7969 0 42.8571 0H7.14286Z" fill="white"/>
</g>
<defs>
<clipPath id="clip0_2183_751">
<rect width="50" height="50" fill="white"/>
</clipPath>
</defs>
</svg>
