<svg width="50" height="50" viewBox="0 0 50 50" fill="none" xmlns="http://www.w3.org/2000/svg">
<g clip-path="url(#clip0_2183_757)">
<path d="M50 7.14286C50 3.20312 46.7969 0 42.8571 0H7.14286C3.20312 0 0 3.20312 0 7.14286V42.8571C0 46.7969 3.20312 50 7.14286 50H42.8571C46.7969 50 50 46.7969 50 42.8571V7.14286ZM7.14286 25C7.14286 18.8281 12.1317 13.8393 18.3036 13.8393C21.317 13.8393 23.8281 14.933 25.7812 16.7634L22.7567 19.6763C21.9308 18.8839 20.4911 17.9576 18.3147 17.9576C14.5089 17.9576 11.4062 21.1049 11.4062 25.0112C11.4062 28.9062 14.5089 32.0647 18.3147 32.0647C22.7344 32.0647 24.3862 28.8839 24.654 27.2545H18.3036V23.4152H28.8393C28.9509 23.9732 29.0179 24.5424 29.0179 25.2679C29.0179 31.6406 24.7433 36.1607 18.3036 36.1607C12.1317 36.1607 7.14286 31.1719 7.14286 25ZM39.6205 27.0313V30.2679H36.3616V27.0313H33.125V23.7723H36.3616V20.5357H39.6205V23.7723H42.8571V27.0313H39.6205Z" fill="white"/>
</g>
<defs>
<clipPath id="clip0_2183_757">
<rect width="50" height="50" fill="white"/>
</clipPath>
</defs>
</svg>
