<svg width="50" height="50" viewBox="0 0 50 50" fill="none" xmlns="http://www.w3.org/2000/svg">
<g clip-path="url(#clip0_2183_755)">
<path d="M21.6964 20.0558C21.0464 20.4904 20.4884 21.0487 20.0541 21.6989C19.6199 22.3492 19.318 23.0786 19.1656 23.8455C18.858 25.3943 19.1782 27.002 20.0558 28.3147C20.9334 29.6275 22.2966 30.5378 23.8455 30.8455C25.3943 31.1532 27.002 30.833 28.3147 29.9554C29.6275 29.0777 30.5378 27.7145 30.8455 26.1657C31.1532 24.6168 30.833 23.0092 29.9554 21.6964C29.0777 20.3837 27.7145 19.4733 26.1657 19.1656C24.6168 18.858 23.0092 19.1782 21.6964 20.0558ZM37.5781 12.4219C36.9978 11.8415 36.2946 11.3839 35.5246 11.0826C33.5045 10.2902 29.096 10.3237 26.25 10.3571C25.7924 10.3571 25.3683 10.3683 25 10.3683C24.6317 10.3683 24.1964 10.3683 23.7277 10.3571C20.8817 10.3237 16.4955 10.279 14.4754 11.0826C13.7054 11.3839 13.0134 11.8415 12.4219 12.4219C11.8304 13.0022 11.3839 13.7054 11.0826 14.4754C10.2902 16.4955 10.3348 20.9152 10.3571 23.7612C10.3571 24.2188 10.3683 24.6429 10.3683 25C10.3683 25.3571 10.3683 25.7812 10.3571 26.2388C10.3348 29.0848 10.2902 33.5045 11.0826 35.5246C11.3839 36.2946 11.8415 36.9866 12.4219 37.5781C13.0022 38.1696 13.7054 38.6161 14.4754 38.9174C16.4955 39.7098 20.904 39.6763 23.75 39.6429C24.2076 39.6429 24.6317 39.6317 25 39.6317C25.3683 39.6317 25.8036 39.6317 26.2723 39.6429C29.1183 39.6763 33.5045 39.721 35.5246 38.9174C36.2946 38.6161 36.9866 38.1585 37.5781 37.5781C38.1696 36.9978 38.6161 36.2946 38.9174 35.5246C39.721 33.5156 39.6763 29.1183 39.6429 26.2612C39.6429 25.7924 39.6317 25.3571 39.6317 24.9888C39.6317 24.6205 39.6317 24.1964 39.6429 23.7165C39.6763 20.8705 39.721 16.4732 38.9174 14.4531C38.6161 13.683 38.1585 12.9911 37.5781 12.3996V12.4219ZM30.0893 17.3884C32.108 18.7382 33.5079 20.8346 33.9809 23.2164C34.4539 25.5983 33.9614 28.0706 32.6116 30.0893C31.9433 31.0889 31.0846 31.947 30.0846 32.6147C29.0846 33.2824 27.9629 33.7467 26.7836 33.9809C24.4017 34.4539 21.9294 33.9614 19.9107 32.6116C17.892 31.2633 16.4916 29.1683 16.0175 26.7875C15.5434 24.4067 16.0345 21.935 17.3828 19.9163C18.7311 17.8976 20.8261 16.4971 23.2069 16.0231C25.5878 15.549 28.0594 16.0401 30.0781 17.3884H30.0893ZM33.3482 17.2433C33.0022 17.0089 32.7232 16.6741 32.5558 16.2835C32.3884 15.8929 32.3549 15.4688 32.433 15.0446C32.5112 14.6205 32.7232 14.2522 33.0134 13.9509C33.3036 13.6496 33.6942 13.4487 34.1071 13.3705C34.5201 13.2924 34.9554 13.3259 35.346 13.4933C35.7366 13.6607 36.0714 13.9286 36.3058 14.2746C36.5402 14.6205 36.6629 15.0335 36.6629 15.4576C36.6629 15.7366 36.6071 16.0156 36.5067 16.2723C36.4062 16.529 36.2388 16.7634 36.0491 16.9643C35.8594 17.1652 35.6138 17.3214 35.3571 17.433C35.1004 17.5446 34.8214 17.6004 34.5424 17.6004C34.1183 17.6004 33.7054 17.4777 33.3594 17.2433H33.3482ZM50 7.14286C50 3.20312 46.7969 0 42.8571 0H7.14286C3.20312 0 0 3.20312 0 7.14286V42.8571C0 46.7969 3.20312 50 7.14286 50H42.8571C46.7969 50 50 46.7969 50 42.8571V7.14286ZM39.8438 39.8438C37.7567 41.9308 35.2232 42.5893 32.3661 42.7344C29.4196 42.9018 20.5804 42.9018 17.6339 42.7344C14.7768 42.5893 12.2433 41.9308 10.1562 39.8438C8.0692 37.7567 7.41071 35.2232 7.27679 32.3661C7.10937 29.4196 7.10937 20.5804 7.27679 17.6339C7.42187 14.7768 8.0692 12.2433 10.1562 10.1562C12.2433 8.0692 14.7879 7.41071 17.6339 7.27679C20.5804 7.10937 29.4196 7.10937 32.3661 7.27679C35.2232 7.42187 37.7567 8.0692 39.8438 10.1562C41.9308 12.2433 42.5893 14.7768 42.7232 17.6339C42.8906 20.5692 42.8906 29.3973 42.7232 32.3549C42.5781 35.2121 41.9308 37.7455 39.8438 39.8326V39.8438Z" fill="white"/>
</g>
<defs>
<clipPath id="clip0_2183_755">
<rect width="50" height="50" fill="white"/>
</clipPath>
</defs>
</svg>
