<svg width="30" height="30" viewBox="0 0 30 30" fill="none" xmlns="http://www.w3.org/2000/svg">
<g clip-path="url(#clip0_2103_760)">
<path d="M15 15C17.2733 15 19.4535 14.2098 21.0609 12.8033C22.6684 11.3968 23.5714 9.48912 23.5714 7.5C23.5714 5.51088 22.6684 3.60322 21.0609 2.1967C19.4535 0.790176 17.2733 0 15 0C12.7267 0 10.5465 0.790176 8.93908 2.1967C7.33163 3.60322 6.42857 5.51088 6.42857 7.5C6.42857 9.48912 7.33163 11.3968 8.93908 12.8033C10.5465 14.2098 12.7267 15 15 15ZM11.9397 17.8125C5.34375 17.8125 0 22.4883 0 28.2598C0 29.2207 0.890625 30 1.98884 30H28.0112C29.1094 30 30 29.2207 30 28.2598C30 22.4883 24.6562 17.8125 18.0603 17.8125H11.9397Z" fill="white"/>
<path d="M20.7317 12.427C19.2215 13.7484 17.1606 14.5 15 14.5C12.8394 14.5 10.7785 13.7484 9.26834 12.427C7.76033 11.1075 6.92857 9.33333 6.92857 7.5C6.92857 5.66667 7.76033 3.89249 9.26834 2.57299C10.7785 1.25162 12.8394 0.5 15 0.5C17.1606 0.5 19.2215 1.25162 20.7317 2.57299C22.2397 3.89249 23.0714 5.66667 23.0714 7.5C23.0714 9.33333 22.2397 11.1075 20.7317 12.427ZM0.5 28.2598C0.5 22.8251 5.55509 18.3125 11.9397 18.3125H18.0603C24.4449 18.3125 29.5 22.8251 29.5 28.2598C29.5 28.8839 28.898 29.5 28.0112 29.5H1.98884C1.10196 29.5 0.5 28.8839 0.5 28.2598Z" stroke="#87CEFA" stroke-opacity="0.5"/>
</g>
<defs>
<clipPath id="clip0_2103_760">
<rect width="30" height="30" fill="white"/>
</clipPath>
</defs>
</svg>
