<svg width="50" height="50" viewBox="0 0 50 50" fill="none" xmlns="http://www.w3.org/2000/svg">
<path d="M49.8243 35.2944C49.6235 39.2523 48.7089 42.7582 45.7864 45.6468C42.8639 48.5463 39.3168 49.4504 35.3123 49.6378L49.8243 35.2944ZM49.8243 35.2944C50.0586 31.2152 50.0586 18.9996 49.8243 14.9204V35.2944ZM49.3249 14.9443L49.3251 14.949C49.5583 19.0091 49.5583 31.2056 49.3251 35.2657L49.325 35.2691C49.1274 39.1633 48.233 42.5255 45.4349 45.2912L45.4342 45.2918C42.6353 48.0688 39.2311 48.9538 35.289 49.1383L35.2843 49.1386C31.1758 49.369 18.8242 49.369 14.7157 49.1386L14.7124 49.1384C10.7698 48.943 7.37527 48.0581 4.56441 45.2905C1.75581 42.5251 0.861629 39.1635 0.675133 35.2705L0.674861 35.2657C0.441713 31.2056 0.441713 18.9981 0.674861 14.938L0.674872 14.938L0.675041 14.9347C0.872648 11.0393 1.75629 7.67818 4.56441 4.91323C7.37506 2.1458 10.7804 1.2609 14.7111 1.07641L14.7111 1.07643L14.7157 1.07618C18.8242 0.845701 31.1758 0.845701 35.2843 1.07619L35.2876 1.07635C39.2309 1.27177 42.6357 2.15692 45.4349 4.92359L45.4356 4.92426C48.2442 7.68968 49.1384 11.0512 49.3249 14.9443ZM39.9231 44.8334L39.9249 44.8327C42.2476 43.9121 44.0342 42.1481 44.9563 39.858C45.6467 38.1433 45.896 35.3141 45.9836 32.5374C46.0468 30.5326 46.0259 28.497 46.0091 26.8502C46.0024 26.2001 45.9964 25.6105 45.9964 25.1074C45.9964 24.6041 46.0024 24.0147 46.0091 23.3647C46.0259 21.7189 46.0468 19.6851 45.9836 17.6815C45.896 14.9058 45.6466 12.0772 44.9565 10.3573L44.9558 10.3555C44.0229 8.05632 42.2371 6.29152 39.9237 5.38156L39.9223 5.38103C38.191 4.70586 35.3323 4.4593 32.5226 4.37141C30.4794 4.30749 28.4055 4.32714 26.7329 4.34299C26.0896 4.34909 25.5056 4.35462 25.0056 4.35462C24.4961 4.35462 23.8996 4.34865 23.2418 4.34207C21.5767 4.3254 19.5198 4.30482 17.493 4.36726C14.6845 4.45379 11.8254 4.7003 10.088 5.38135L10.0863 5.38205C7.7636 6.30265 5.97693 8.06667 5.05487 10.3567L5.05432 10.3581C4.37014 12.072 4.12069 14.9002 4.03177 17.6771C3.96708 19.697 3.98698 21.7474 4.00302 23.4007C4.00918 24.0364 4.01478 24.6134 4.01478 25.1074C4.01478 25.6106 4.00874 26.2001 4.00208 26.85C3.98522 28.4959 3.96438 30.5296 4.02758 32.5332C4.11512 35.3089 4.36451 38.1376 5.05465 39.8575L5.05537 39.8592C5.98821 42.1584 7.77406 43.9232 10.0875 44.8332L10.0888 44.8337C11.8202 45.5089 14.6789 45.7554 17.4885 45.8433C19.5318 45.9073 21.6056 45.8876 23.2782 45.8717C23.9216 45.8657 24.5055 45.8601 25.0056 45.8601C25.515 45.8601 26.1116 45.8661 26.7693 45.8727C28.4344 45.8893 30.4914 45.9099 32.5182 45.8475C35.3266 45.7609 38.1858 45.5144 39.9231 44.8334ZM12.6891 25.1074C12.6891 18.3772 18.1819 12.9398 25.0056 12.9398C31.8292 12.9398 37.3221 18.3772 37.3221 25.1074C37.3221 31.8376 31.8292 37.275 25.0056 37.275C18.1819 37.275 12.6891 31.8376 12.6891 25.1074ZM16.1732 25.1074C16.1732 29.9317 20.1509 33.843 25.0056 33.843C29.8603 33.843 33.838 29.9317 33.838 25.1074C33.838 20.2835 29.8718 16.3718 25.0056 16.3718C20.1393 16.3718 16.1732 20.2835 16.1732 25.1074ZM40.8358 11.9216C40.8358 13.2815 39.7278 14.3763 38.3464 14.3763C36.9562 14.3763 35.8569 13.2728 35.8569 11.9216C35.8569 10.5715 36.9661 9.46691 38.3464 9.46691C39.7266 9.46691 40.8358 10.5715 40.8358 11.9216Z" fill="white" stroke="white"/>
</svg>
