<svg width="20" height="20" viewBox="0 0 20 20" fill="none" xmlns="http://www.w3.org/2000/svg">
<g clip-path="url(#clip0_2106_902)">
<path d="M1.47949 4.81849L1.47976 4.81836L9.85163 0.634764L9.85164 0.634778L9.85524 0.632942C9.94915 0.585063 10.0469 0.583725 10.1471 0.634134L10.1484 0.634764L18.5202 4.81836L18.5205 4.81849C19.0714 5.09334 19.5 5.81359 19.5 6.69141V19.0625C19.5 19.2175 19.4498 19.3396 19.3904 19.4137C19.3321 19.4866 19.2797 19.5 19.25 19.5H17.75C17.7203 19.5 17.6679 19.4866 17.6096 19.4137C17.5502 19.3396 17.5 19.2175 17.5 19.0625V8.75C17.5 7.89233 16.9276 7 16 7H4C3.07238 7 2.5 7.89233 2.5 8.75V19.0625C2.5 19.2175 2.44976 19.3396 2.39042 19.4137C2.33211 19.4866 2.27974 19.5 2.25 19.5H0.75C0.720261 19.5 0.667894 19.4866 0.609575 19.4137C0.550243 19.3396 0.5 19.2175 0.5 19.0625V6.69141C0.5 5.81011 0.928328 5.0935 1.47949 4.81849ZM15.25 19.5H4.75C4.72026 19.5 4.66789 19.4866 4.60957 19.4137C4.55024 19.3396 4.5 19.2175 4.5 19.0625V17.375H15.5V19.0625C15.5 19.2175 15.4498 19.3396 15.3904 19.4137C15.3321 19.4866 15.2797 19.5 15.25 19.5ZM4.5 15.125V13.625H15.5V15.125H4.5ZM4.5 11.375V9.25H15.5V11.375H4.5Z" fill="#2C2C68" stroke="#FDFDFD"/>
</g>
<defs>
<clipPath id="clip0_2106_902">
<rect width="20" height="20" fill="white"/>
</clipPath>
</defs>
</svg>
